PathFileType	4	(X/Y/Z)	T1_P2_Vision_NoMovement_1_0-732.trc
DataRate	CameraRate	NumFrames	NumMarkers	Units	OrigDataRate	OrigDataStartFrame	OrigNumFrames
60	60	6	27	m	60	91	732
Frame#	Time	RHip			RKnee			RAnkle			RBigToe			RSmallToe			RHeel			LHip			LKnee			LAnkle			LBigToe			LSmallToe			LHeel			Neck			Head			Nose			RShoulder			RElbow			RWrist			RThumb			RIndex			RPinky			LShoulder			LElbow			LWrist			LThumb			LIndex			LPinky		
		X1	Y1	Z1	X2	Y2	Z2	X3	Y3	Z3	X4	Y4	Z4	X5	Y5	Z5	X6	Y6	Z6	X7	Y7	Z7	X8	Y8	Z8	X9	Y9	Z9	X10	Y10	Z10	X11	Y11	Z11	X12	Y12	Z12	X13	Y13	Z13	X14	Y14	Z14	X15	Y15	Z15	X16	Y16	Z16	X17	Y17	Z17	X18	Y18	Z18	X19	Y19	Z19	X20	Y20	Z20	X21	Y21	Z21	X22	Y22	Z22	X23	Y23	Z23	X24	Y24	Z24	X25	Y25	Z25	X26	Y26	Z26	X27	Y27	Z27
92	1.5333333333333334	444.01432407760547	3672.9691796241536	627.7807787311045	819.5344621716632	3693.247074406765	634.8262709092611	1214.4917586088397	3734.6315952339	674.0059693033727	1284.8199130928044	3626.366726837524	644.670487908927	1287.2874781835228	3687.8512781283584	605.0921561551075	1287.0570194710756	3814.256989210425	745.9525932198899	463.3735201167874	3622.050100656107	846.2239154897737	837.539468206977	3616.240222662779	845.4353988987639	1234.547736004764	3676.91645366001	854.2914317557361	1301.3508812865498	3533.347118823178	796.1074691966128	1288.8029724328935	3539.066320722034	846.2742801101476	1266.510264373231	3709.115030324793	857.3416403470237	-105.67591721504076	3624.08147333179	742.9581527698035	-368.2497243704548	3522.099121183109	735.2116590919225	-201.34936672148115	3450.158433603782	700.1639162741507	-43.265384885092985	3654.325560102821	573.9429477751794	198.72527706110205	3648.847491840229	520.2695317610918	356.6079787077838	3523.164360921141	613.3945619673785	435.82885217859143	3496.402134850573	713.7280633551433	447.8827958076982	3468.0115524242483	707.2754434371075	469.0081692738709	3447.153402954829	662.8941872869326	-26.99730160666025	3565.7894315644426	888.4073415766027	221.4500535611425	3486.1450736001098	895.104052726055	348.10124929347387	3410.172708444181	702.3260977215914	398.32909255110036	3422.34338200535	616.6279186209616	433.00050570777137	3411.917399936432	599.6740069377369	452.38342426425487	3430.113702393929	660.882655360321
93	1.55	443.28662547045855	3672.9390855033	627.7720181604457	817.2891019482041	3693.372168241707	634.6943654857579	1213.3922472713189	3732.1494942036707	671.4570008515257	1284.666846909799	3627.4654518060197	644.7790704414155	1286.9277231316107	3688.567508918424	605.4758508961779	1286.3501089147803	3812.4669091065207	745.4577498978477	463.37161604135827	3621.9903709234964	846.2032876729945	838.3659512542338	3617.2774911292036	845.8093533097116	1234.307375846391	3677.6191824308135	854.7507145883916	1301.8908024052046	3533.243967213483	795.5150085268531	1288.7100185864354	3539.113735493504	846.3781356555605	1266.1793259004992	3709.6480112317595	857.6681539485004	-106.32967071616633	3620.6121719143407	739.7058976840227	-366.9230152917977	3515.4304951580884	731.9375270848524	-200.22484519525514	3451.3850147605026	700.3607825833853	-43.338563779464096	3654.4656508601042	574.0044079082053	198.47646056033318	3648.3395844680513	519.9628172487064	356.4958200807007	3523.147034204635	613.3868812634654	435.9182335147758	3496.1737146769656	713.1848925599631	447.86857069599927	3467.4693962640404	707.1254308386006	469.7683265659205	3446.3451198067596	660.5686402570144	-25.85078226611055	3564.7095126572212	887.6919246507102	223.82230808663945	3487.1747142807267	895.4815976542402	348.13606894599883	3411.0279361339904	701.1506267030805	397.74149146742013	3419.6470555513906	614.2378242163838	433.0167303639904	3411.744648734896	599.5154751213547	453.8522235812695	3430.77984928765	661.0961859649162
94	1.5666666666666669	443.6242292767152	3675.2505343476164	628.3791634796277	816.1593815498171	3697.210110204528	635.2768728371295	1213.3316227000523	3731.4451638502833	669.8495721533544	1283.9463098944866	3625.7025796927755	644.2045828285393	1286.8025223609482	3688.7748139678015	605.6166971276726	1287.132135669628	3814.560550668973	746.0707853221398	463.2742248523435	3621.991623894299	846.2106233422804	839.7426162006735	3620.1637371982188	846.7619396608436	1233.9435082249115	3678.6298934037072	855.3778046083468	1301.9722061256998	3532.558798432477	794.706573508322	1288.145795595255	3538.84642305691	846.1852039065423	1265.7646163635038	3710.5203076443977	858.181590149546	-106.58966585775148	3615.4248392236254	735.072067862819	-366.10729521108186	3509.251502059432	727.6372747406551	-199.79564056041835	3450.820963674764	700.0895511146483	-43.44415190203984	3654.6036292490676	574.0587449693649	199.37210206080198	3647.328492741212	519.4054027007194	356.38748877579945	3523.034157294204	613.3386930317365	435.656313848436	3495.939465605812	712.9552162725117	448.62085110251155	3472.2082192770163	708.4217174847549	470.1290466116276	3446.1553813036608	659.7845986529622	-25.393383415661326	3564.3003615477082	887.3297304534744	226.32440376418504	3486.9990847587683	895.1932302249554	348.17230622823024	3412.1544435534984	699.5366873862862	397.71395094368387	3417.5436801664223	611.4652963698558	433.02336956199673	3411.6572773892976	599.3758425833535	455.57510185861986	3430.6698344598253	660.5747869081526
95	1.5833333333333333	445.59439886118946	3681.453086012853	630.0030958907532	817.7299799989804	3705.979472543487	636.4335265727666	1215.0369411078734	3733.846570194613	671.0200587209546	1284.0204843331198	3624.305425911944	644.0004900725291	1286.6440839332313	3689.1753756325497	605.8494082024648	1288.5616607026932	3818.328814432817	747.1626199259059	463.2628866865539	3621.937490228537	846.1574685347442	840.5678389395193	3623.9009119994817	847.8986434899234	1233.7189026824872	3678.9898004652423	855.5673438134595	1302.270391284405	3532.846552056492	795.150082581342	1286.7464378394995	3538.3771325074404	845.6716885156738	1265.501664358236	3711.0808250810783	858.5012475624968	-106.70157035949123	3611.344048787406	731.4620731727252	-365.79880718005126	3503.899311998438	722.7193203998022	-199.87176029288656	3450.320103954252	699.8653880178863	-43.40949808978581	3654.5762675984515	574.021783900286	200.752825784365	3646.0193088042847	518.7485423236108	356.3018417886873	3522.8716536529723	613.2760449664056	436.29230448516967	3495.915220841364	712.8310922888963	449.7788519947841	3479.269159796552	710.3229201740255	469.8426709980721	3444.690263630413	658.4395150628086	-25.38019869921564	3564.204229927218	887.2965124400339	227.8369304505008	3485.299291585728	894.1367577054398	348.2067466159021	3413.0360879754326	698.2226807737177	398.66828287609496	3416.9737644958886	608.6861641986872	433.07753115121056	3411.6075683832105	599.1971371278771	457.4359693589386	3429.7287040375704	659.2738316358436
96	1.6	448.1580195448263	3687.993551216706	631.7205942837718	821.5728373110918	3716.1718991913954	637.2907378592079	1217.0008305228632	3737.2128787133547	673.6106040028665	1285.9801417597757	3626.410901314284	645.035470130485	1286.608831486413	3689.4832097399344	605.993205857276	1289.2528161730984	3820.176745410816	747.7095551510597	463.32276581738665	3621.822021594551	846.0428367235809	839.6928292067474	3625.3673221795902	848.1465539390438	1233.870360086538	3678.475204584821	855.247814300139	1302.6090638010246	3533.588464416456	795.8092306614666	1285.070707682864	3537.874939071862	845.0580214540943	1265.3880078337083	3711.2159987801597	858.5748712610507	-106.67078531979556	3609.5716320751153	729.930009390501	-365.838516654837	3501.1083601276223	719.2585883633496	-199.93255640918093	3449.4591305897793	699.5897570038965	-42.87460529439516	3654.0722528690308	573.7342860350365	201.79508854404142	3645.028167323543	518.2873953801953	356.3439453627429	3522.7718321400876	613.2462320068969	437.31682636230084	3496.2003145251683	712.7957939245716	450.7501713295776	3484.636283268561	711.7254249352144	469.08559700865897	3441.2999451716682	655.4522460911725	-25.47183285100913	3563.8432524664363	887.6694809018479	227.64714149516277	3482.8461776175286	892.7815782919762	348.3187683361395	3413.372494983483	697.7327162604724	400.300318764101	3418.1864585680573	606.7507041953961	433.28735423029957	3411.613588843381	599.0136086621635	458.99902400273436	3428.637425299667	657.9343253724949
97	1.6166666666666667	449.94635640975287	3691.553570062001	632.6665207319309	825.4104832864273	3722.6932837395725	637.2998448387882	1217.7882793079266	3738.711959447402	674.8205482113793	1288.6737362928056	3630.7677261870567	646.6877578108716	1286.9229095339506	3689.048889187524	605.6965453936648	1288.5310183955255	3818.61329032411	747.2837940452133	463.39985458089865	3621.7038819988793	845.9289749793048	837.2591635098893	3622.8523667179666	847.0162860622274	1234.4872001491008	3677.906350934562	855.0490674624606	1303.0757243520907	3535.1483166605426	795.9380196199833	1284.3684587181588	3537.6834982183523	844.7775335295721	1265.330783254895	3711.1557567169793	858.5484274452477	-106.22655142390184	3608.9994758330845	729.5841564880974	-365.97131707500427	3501.463530083339	718.567530084775	-199.4471044223686	3446.9543809632423	698.5509591536286	-41.61834008950534	3652.903385065552	573.1035347476627	202.18957325333488	3644.6236338047192	518.1275541156002	356.8339307919941	3522.8925291778287	613.3206791236246	437.7515616956509	3496.715528875734	712.8962361475294	451.19495403934195	3486.7500250863304	712.2338873096436	468.6186847535139	3438.0372932527835	652.4905503350719	-25.520332289490533	3562.9333694233846	888.533182742602	226.31795861457593	3480.756158242929	891.7125283338751	348.69257249648075	3413.1720637014755	698.2389657330676	401.6248750902648	3419.8745007076886	605.8773918534785	433.8674947585139	3411.7680445287597	598.9489051085761	459.9905361974713	3428.062955312883	657.2912435991262
